<?xml version="1.0" encoding="UTF-8" standalone="no"?>
<!-- Created with Inkscape (http://www.inkscape.org/) -->

<svg
   xmlns:dc="http://purl.org/dc/elements/1.1/"
   xmlns:cc="http://creativecommons.org/ns#"
   xmlns:rdf="http://www.w3.org/1999/02/22-rdf-syntax-ns#"
   xmlns:svg="http://www.w3.org/2000/svg"
   xmlns="http://www.w3.org/2000/svg"
   xmlns:xlink="http://www.w3.org/1999/xlink"
   xmlns:sodipodi="http://sodipodi.sourceforge.net/DTD/sodipodi-0.dtd"
   xmlns:inkscape="http://www.inkscape.org/namespaces/inkscape"
   width="512"
   height="512"
   id="svg3336"
   version="1.1"
   inkscape:version="0.91 r13725"
   sodipodi:docname="myChicheIcon.svg"
   inkscape:export-filename="irregular-pictogram+shadows.png"
   inkscape:export-xdpi="96"
   inkscape:export-ydpi="96"
   style="enable-background:new"
   viewBox="0 0 512 512">
  <defs
     id="defs3338">
    <linearGradient
       inkscape:collect="always"
       id="linearGradient5496">
      <stop
         style="stop-color:#000000;stop-opacity:0"
         offset="0"
         id="stop5498" />
      <stop
         id="stop5504"
         offset="0.50697196"
         style="stop-color:#000000;stop-opacity:1" />
      <stop
         style="stop-color:#000000;stop-opacity:0"
         offset="1"
         id="stop5500" />
    </linearGradient>
    <filter
       inkscape:collect="always"
       style="color-interpolation-filters:sRGB"
       id="filter5490"
       x="-0.011793819"
       width="1.0235876"
       y="-0.012213518"
       height="1.024427">
      <feGaussianBlur
         inkscape:collect="always"
         stdDeviation="1.7087841"
         id="feGaussianBlur5492" />
    </filter>
    <linearGradient
       inkscape:collect="always"
       xlink:href="#linearGradient5496"
       id="linearGradient5502"
       x1="128"
       y1="192"
       x2="392"
       y2="304"
       gradientUnits="userSpaceOnUse"
       gradientTransform="translate(0,4)" />
    <filter
       inkscape:collect="always"
       style="color-interpolation-filters:sRGB"
       id="filter5506"
       x="-0.11793819"
       width="1.2358764"
       y="-0.12213518"
       height="1.2442704">
      <feGaussianBlur
         inkscape:collect="always"
         stdDeviation="17.087841"
         id="feGaussianBlur5508" />
    </filter>
  </defs>
  <sodipodi:namedview
     id="base"
     pagecolor="#b4b4b4"
     bordercolor="#666666"
     borderopacity="1.0"
     inkscape:pageopacity="0"
     inkscape:pageshadow="2"
     inkscape:zoom="1"
     inkscape:cx="247.90735"
     inkscape:cy="346.17521"
     inkscape:document-units="px"
     inkscape:current-layer="layer3"
     showgrid="false"
     inkscape:window-width="928"
     inkscape:window-height="1026"
     inkscape:window-x="992"
     inkscape:window-y="24"
     inkscape:window-maximized="0"
     inkscape:snap-page="true"
     inkscape:showpageshadow="false"
     showborder="true"
     inkscape:snap-bbox="true"
     inkscape:bbox-paths="true"
     inkscape:bbox-nodes="true"
     inkscape:snap-bbox-edge-midpoints="true"
     inkscape:snap-bbox-midpoints="true"
     inkscape:object-paths="true"
     inkscape:object-nodes="true"
     inkscape:snap-intersection-paths="true"
     inkscape:snap-smooth-nodes="true"
     inkscape:snap-midpoints="true"
     inkscape:snap-object-midpoints="true"
     inkscape:snap-center="true"
     showguides="false"
     inkscape:guide-bbox="true"
     inkscape:snap-grids="true"
     fit-margin-top="18"
     fit-margin-left="0"
     fit-margin-right="0"
     fit-margin-bottom="18"
     inkscape:snap-global="true">
    <inkscape:grid
       type="xygrid"
       id="grid811"
       originx="0"
       originy="15.999999"
       visible="true"
       enabled="true"
       empspacing="4" />
    <sodipodi:guide
       orientation="1,0"
       position="104,176"
       id="guide819" />
    <sodipodi:guide
       orientation="1,0"
       position="120,160"
       id="guide821" />
    <sodipodi:guide
       orientation="1,0"
       position="392,144"
       id="guide823" />
    <sodipodi:guide
       orientation="1,0"
       position="408,144"
       id="guide825" />
    <sodipodi:guide
       orientation="0,1"
       position="328,408"
       id="guide827" />
    <sodipodi:guide
       orientation="0,1"
       position="336,392"
       id="guide829" />
    <sodipodi:guide
       orientation="0,1"
       position="176,120"
       id="guide831" />
    <sodipodi:guide
       orientation="0,1"
       position="216,104"
       id="guide833" />
    <inkscape:grid
       type="axonomgrid"
       id="grid835"
       units="px"
       empspacing="60"
       gridanglex="42.9"
       gridanglez="42.9"
       spacingy="3.522px"
       enabled="false"
       originx="0"
       originy="16.999996" />
    <sodipodi:guide
       orientation="0,1"
       position="344,376"
       id="guide4126" />
    <sodipodi:guide
       orientation="0,1"
       position="160,136"
       id="guide4128" />
    <sodipodi:guide
       orientation="1,0"
       position="136,96"
       id="guide4130" />
    <sodipodi:guide
       orientation="1,0"
       position="376,136"
       id="guide4134" />
    <sodipodi:guide
       orientation="-0.70710678,0.70710678"
       position="256,256"
       id="guide4136" />
    <sodipodi:guide
       orientation="0,1"
       position="288,256"
       id="guide4140" />
    <sodipodi:guide
       orientation="0.70710678,0.70710678"
       position="256,256"
       id="guide4142" />
    <sodipodi:guide
       orientation="0,1"
       position="248,15.999999"
       id="guide4152" />
    <sodipodi:guide
       orientation="0,1"
       position="336,496"
       id="guide4154" />
    <sodipodi:guide
       position="196,316"
       orientation="0,1"
       id="guide3529" />
    <sodipodi:guide
       position="196,196"
       orientation="0,1"
       id="guide3531" />
    <sodipodi:guide
       position="408,346"
       orientation="0,1"
       id="guide3552" />
    <sodipodi:guide
       position="408,166"
       orientation="0,1"
       id="guide3556" />
  </sodipodi:namedview>
  <metadata
     id="metadata3341">
    <rdf:RDF>
      <cc:Work
         rdf:about="">
        <dc:format>image/svg+xml</dc:format>
        <dc:type
           rdf:resource="http://purl.org/dc/dcmitype/StillImage" />
        <dc:title></dc:title>
      </cc:Work>
    </rdf:RDF>
  </metadata>
  <g
     inkscape:groupmode="layer"
     id="layer3"
     inkscape:label="Background"
     style="display:inline">
    <path
       inkscape:connector-curvature="0"
       id="path14907"
       d="m 0,0 0,512 512,0 0,-512 z"
       style="color:#000000;display:inline;overflow:visible;visibility:visible;fill:#484537;fill-opacity:1;fill-rule:nonzero;stroke:none;stroke-width:1;marker:none;enable-background:accumulate"
       sodipodi:nodetypes="ccccc" />
    <path
       style="opacity:0.05;fill:#ffffff;fill-opacity:1;fill-rule:evenodd;stroke:none;stroke-width:1px;stroke-linecap:butt;stroke-linejoin:miter;stroke-opacity:1"
       d="M 152,512 192,416 288,186 362,10e-7 512,10e-7 512,512 Z"
       id="path5484"
       inkscape:connector-curvature="0"
       sodipodi:nodetypes="ccccccc" />
  </g>
  <g
     inkscape:groupmode="layer"
     id="layer4"
     inkscape:label="Pictogram"
     style="display:inline">
    <path
       sodipodi:nodetypes="ccccccccccccc"
       inkscape:connector-curvature="0"
       id="path5488"
       d="M 410,348 362.40089,258.00001 410,168 l -99.56063,1e-5 L 257.5,80.93364 206.51633,168 106,168 154.73506,258.02735 106,348 206.51632,347.99999 257.5,435.06636 310.43936,348 Z"
       style="opacity:0.1;fill:#000000;fill-opacity:1;stroke:none;stroke-width:2;stroke-linecap:square;stroke-linejoin:round;stroke-miterlimit:4;stroke-dasharray:none;stroke-opacity:1;filter:url(#filter5490)"
       transform="matrix(1.181383,0,0,1.1813832,-46.434048,-46.434099)" />
    <path
       style="opacity:0.4;fill:url(#linearGradient5502);fill-opacity:1;stroke:none;stroke-width:2;stroke-linecap:square;stroke-linejoin:round;stroke-miterlimit:4;stroke-dasharray:none;stroke-opacity:1;filter:url(#filter5506)"
       d="M 255.5,433.06636 308.43936,346 408,346 360.40088,256 408,166 l -99.56063,1e-5 L 255.5,78.93364 204.51633,166 104,166 152.5548,256 104,346 l 100.51632,-10e-6 z"
       id="path5494"
       inkscape:connector-curvature="0"
       sodipodi:nodetypes="ccccccccccccc"
       transform="matrix(1.181383,0,0,1.1813832,-46.434048,-46.434099)" />
    <path
       style="opacity:1;fill:#e7e7df;fill-opacity:1;stroke:none;stroke-width:2;stroke-linecap:square;stroke-linejoin:round;stroke-miterlimit:4;stroke-dasharray:none;stroke-opacity:1"
       d="M 435.57023,362.32449 379.33743,256 l 56.2328,-106.32449 -117.61924,1e-5 -62.54168,-102.858743 -60.23124,102.858733 -118.74828,0 L 133.7916,256 76.42979,362.32449 l 118.74827,-2e-5 60.23125,102.85875 62.54167,-102.85873 z"
       id="rect5419"
       inkscape:connector-curvature="0"
       sodipodi:nodetypes="ccccccccccccc" />
    <path
       sodipodi:type="star"
       style="fill:#ffffff;stroke:none"
       id="path3564"
       sodipodi:sides="6"
       sodipodi:cx="256.56453"
       sodipodi:cy="255.99996"
       sodipodi:r1="122.77292"
       sodipodi:r2="106.32447"
       sodipodi:arg1="1.0471976"
       sodipodi:arg2="1.5707963"
       inkscape:flatsided="true"
       inkscape:rounded="0"
       inkscape:randomized="0"
       d="m 317.951,362.32442 -122.77292,0 -61.38645,-106.32447 61.38646,-106.32447 122.77292,1e-5 61.38645,106.32447 z" />
    <path
       id="path4397"
       style="fill:none;fill-rule:evenodd;stroke:#ffffff;stroke-width:1;stroke-linecap:butt;stroke-linejoin:miter;stroke-opacity:1"
       d="m 76.42979,149.67551 118.74828,0 60.23124,-102.858733 62.54167,102.858733 117.61925,0 m -359.14044,0 57.57477,106.3568 -57.57477,106.29218"
       inkscape:connector-curvature="0" />
    <path
       style="fill:#ff8080;stroke:#ffffff;stroke-width:0.70710677;stroke-opacity:1"
       d="m 133.65664,254.01535 c -0.33541,-0.54166 -13.09799,-24.0542 -28.36129,-52.25008 l -27.751467,-51.26524 29.317837,-0.18454 c 16.1248,-0.10149 42.46061,-0.10149 58.52401,0 l 29.20618,0.18454 -29.23198,50.55813 c -16.07759,27.80698 -29.65081,51.31951 -30.16271,52.25008 -0.73485,1.33583 -1.0591,1.48466 -1.54058,0.70711 z"
       id="path4422"
       inkscape:connector-curvature="0" />
    <path
       style="fill:#cdde87;stroke:#ffffff;stroke-width:0.70710677;stroke-opacity:1"
       d="m 196.40148,148.85005 c 1.32214,-3.30567 58.95326,-100.424535 59.35026,-100.015917 0.2937,0.302293 12.52531,20.277904 27.18137,44.390245 14.65605,24.112342 28.36361,46.624852 30.46124,50.027802 l 3.81388,6.18719 -60.52123,0 c -33.28667,0 -60.41516,-0.2652 -60.28552,-0.58932 z"
       id="path4426"
       inkscape:connector-curvature="0" />
    <path
       style="fill:#87decd;stroke:#ffffff;stroke-width:0.70710677;stroke-opacity:1"
       d="m 77.489686,361.90874 c 0,-0.20338 12.365425,-23.19319 27.478724,-51.08847 15.11329,-27.89528 27.86478,-51.45775 28.33664,-52.36105 0.7943,-1.52057 2.95742,1.99268 29.16969,47.37615 15.57147,26.96019 29.2608,50.68906 30.42072,52.73083 l 2.10895,3.71231 -58.75736,0 c -32.31655,0 -58.757364,-0.1664 -58.757364,-0.36977 z"
       id="path4428"
       inkscape:connector-curvature="0" />
    <path
       style="fill:#8080ff;stroke:#ffffff;stroke-width:0.70710677;stroke-opacity:1"
       d="m 349.01869,203.37696 c -16.52862,-28.61768 -30.1581,-52.30177 -30.28774,-52.63132 -0.12964,-0.32954 25.88305,-0.59917 57.80598,-0.59917 31.92292,0 58.04168,0.19198 58.04168,0.42662 0,0.49628 -54.43616,103.63434 -55.07784,104.35382 -0.23652,0.2652 -13.95346,-22.93227 -30.48208,-51.54995 z"
       id="path4434"
       inkscape:connector-curvature="0" />
    <path
       style="fill:#de87cd;stroke:#ffffff;stroke-width:0.70710677;stroke-opacity:1"
       d="m 225.51458,413.60157 -29.81246,-50.96951 60.50871,-0.18075 c 33.27979,-0.0994 60.64096,-0.0485 60.8026,0.11315 0.23147,0.23146 -57.87441,96.46362 -60.9172,100.88813 -0.62359,0.90676 -6.41245,-8.52965 -30.58165,-49.85102 z"
       id="path4436"
       inkscape:connector-curvature="0" />
    <path
       style="fill:#ffe680;stroke:#ffffff;stroke-width:0.70710677;stroke-opacity:1"
       d="m 318.6131,361.80826 c 0,-0.25863 13.58453,-23.99543 30.18786,-52.74844 26.35795,-45.64572 30.30194,-52.12217 31.08709,-51.04842 0.49458,0.67638 12.25908,22.74264 26.14333,49.03614 13.88425,26.29349 26.17678,49.47689 27.31672,51.51866 l 2.07262,3.71231 -58.40381,0 c -32.1221,0 -58.40381,-0.21161 -58.40381,-0.47025 z"
       id="path4438"
       inkscape:connector-curvature="0" />
  </g>
</svg>
